<?xml version="1.0" encoding="UTF-8"?>
<svg width="152px" height="40px" viewBox="0 0 152 40" version="1.1" xmlns="http://www.w3.org/2000/svg" xmlns:xlink="http://www.w3.org/1999/xlink">
    <title>Logo</title>
    <g id="Landingsside" stroke="none" stroke-width="1" fill="none" fill-rule="evenodd">
        <g id="1440_Start" transform="translate(-200.000000, -47.000000)" fill="#154222" fill-rule="nonzero">
            <g id="NokNok_grønn" transform="translate(200.000000, 47.000000)">
                <path d="M0,39.1481481 L0,38.1481481 L0.814814815,38.1481481 C3.15185185,38.1481481 4.17037037,36.2666667 4.17037037,32.8592593 L4.17037037,9.40740741 C4.17037037,5.64444444 3.2037037,3.3037037 0.914814815,2.33703704 L0,1.98148148 L0,1.01851852 L7.72962963,1.01851852 L23.9481481,27.6592593 L23.9481481,7.32222222 C23.9481481,3.86296296 22.9296296,2.03333333 19.9296296,2.03333333 L19.2185185,2.03333333 L19.2185185,1.01851852 L29.8444444,1.01851852 L29.8444444,2.03333333 L29.0333333,2.03333333 C26.6925926,2.03333333 25.6777778,3.91481481 25.6777778,7.32222222 L25.6777778,39.6592593 L24.7111111,39.6592593 L5.8962963,8.7962963 L5.8962963,32.8444444 C5.8962963,36.2962963 6.91481481,38.1481481 9.91481481,38.1481481 L10.6259259,38.1481481 L10.6259259,39.162963 L0,39.1481481 Z" id="Path"></path>
                <path d="M30.2,26.437037 C30.2,18.5592593 34.3703704,12.862963 40.062963,12.862963 C45.7555556,12.862963 49.9259259,18.5592593 49.9259259,26.437037 C49.9259259,34.3148148 45.7592593,40 40.062963,40 C34.3666667,40 30.2,34.3185185 30.2,26.437037 Z M35.4888889,26.437037 C35.4888889,32.8444444 36.6,38.3851852 40.062963,38.3851852 C43.5259259,38.3851852 44.6407407,32.8296296 44.6407407,26.437037 C44.6407407,20.0444444 43.5296296,14.4888889 40.062963,14.4888889 C36.5962963,14.4888889 35.4888889,20.0333333 35.4888889,26.437037 L35.4888889,26.437037 Z" id="Shape"></path>
                <path d="M60.9592593,38.1481481 L61.5703704,38.1481481 L61.5703704,39.162963 L51.3518519,39.162963 L51.3518519,38.1481481 L51.9592593,38.1481481 C53.3851852,38.1481481 53.9962963,37.2333333 53.9962963,35.8074074 L53.9962963,6.1 L51.3,6.1 L51.3,5.28888889 C53.9444444,4.27037037 56.2962963,2.44074074 58.3148148,0 L58.9259259,0 L58.9259259,26.8444444 L64.9259259,17.5851852 C66.037037,15.9592593 65.9925926,14.737037 64.3666667,14.737037 L63.3333333,14.737037 L63.3333333,13.7259259 L71.4814815,13.7259259 L71.4814815,14.7444444 L70.8703704,14.7444444 C69.6,14.7444444 68.1777778,15.4037037 66.6,17.7444444 L63.3962963,22.4740741 L69.8555556,34.9814815 C71.1777778,37.5740741 71.9888889,38.1333333 73.3111111,38.1333333 L73.7703704,38.1333333 L73.7703704,39.1481481 L63.3333333,39.1481481 L63.3333333,38.1481481 L63.9962963,38.1481481 C65.5222222,38.1481481 65.1666667,36.7222222 64.6074074,35.6555556 L60.3,27.1 L58.9259259,29.1851852 L58.9259259,35.7925926 C58.9259259,37.2185185 59.4333333,38.1481481 60.9592593,38.1481481 Z" id="Path"></path>
                <path d="M77.3296296,39.1481481 L77.3296296,38.1481481 L78.1481481,38.1481481 C80.4851852,38.1481481 81.5037037,36.2666667 81.5037037,32.8592593 L81.5037037,9.40740741 C81.5037037,5.64444444 80.537037,3.3037037 78.2481481,2.33703704 L77.3333333,1.96666667 L77.3333333,1.01851852 L85.062963,1.01851852 L101.281481,27.6592593 L101.281481,7.32222222 C101.281481,3.86296296 100.266667,2.03333333 97.2666667,2.03333333 L96.5518519,2.03333333 L96.5518519,1.01851852 L107.181481,1.01851852 L107.181481,2.03333333 L106.366667,2.03333333 C104.025926,2.03333333 103.011111,3.91481481 103.011111,7.32222222 L103.011111,39.6592593 L102.044444,39.6592593 L83.2296296,8.7962963 L83.2296296,32.8444444 C83.2296296,36.3037037 84.2444444,38.1333333 87.2444444,38.1333333 L87.9555556,38.1333333 L87.9555556,39.1481481 L77.3296296,39.1481481 Z" id="Path"></path>
                <path d="M107.52963,26.437037 C107.52963,18.5592593 111.7,12.862963 117.396296,12.862963 C123.092593,12.862963 127.259259,18.5592593 127.259259,26.437037 C127.259259,34.3148148 123.088889,40 117.407407,40 C111.725926,40 107.52963,34.3185185 107.52963,26.437037 Z M112.818519,26.437037 C112.818519,32.8444444 113.92963,38.3851852 117.396296,38.3851852 C120.862963,38.3851852 121.97037,32.8296296 121.97037,26.437037 C121.97037,20.0444444 120.859259,14.4888889 117.396296,14.4888889 C113.933333,14.4888889 112.818519,20.0333333 112.818519,26.437037 L112.818519,26.437037 Z" id="Shape"></path>
                <path d="M138.292593,38.1481481 L138.888889,38.1481481 L138.888889,39.162963 L128.681481,39.162963 L128.681481,38.1481481 L129.292593,38.1481481 C130.714815,38.1481481 131.325926,37.2333333 131.325926,35.8074074 L131.325926,6.1 L128.62963,6.1 L128.62963,5.28888889 C131.274074,4.27037037 133.614815,2.44074074 135.648148,0 L136.255556,0 L136.255556,26.8444444 L142.255556,17.5851852 C143.366667,15.9592593 143.325926,14.737037 141.696296,14.737037 L140.681481,14.737037 L140.681481,13.7259259 L148.82963,13.7259259 L148.82963,14.7444444 L148.218519,14.7444444 C146.948148,14.7444444 145.525926,15.4037037 143.948148,17.7444444 L140.740741,22.4740741 L147.2,34.9814815 C148.522222,37.5740741 149.333333,38.1333333 150.655556,38.1333333 L151.111111,38.1333333 L151.111111,39.1481481 L140.681481,39.1481481 L140.681481,38.1481481 L141.340741,38.1481481 C142.866667,38.1481481 142.511111,36.7222222 141.951852,35.6555556 L137.62963,27.1 L136.255556,29.1851852 L136.255556,35.7925926 C136.255556,37.2185185 136.766667,38.1481481 138.292593,38.1481481 Z" id="Path"></path>
            </g>
        </g>
    </g>
</svg>