<?xml version="1.0" encoding="utf-8"?>
<!-- Generator: Adobe Illustrator 25.3.0, SVG Export Plug-In . SVG Version: 6.00 Build 0)  -->
<svg version="1.2" baseProfile="tiny" id="Layer_1" xmlns="http://www.w3.org/2000/svg" xmlns:xlink="http://www.w3.org/1999/xlink"
	 x="0px" y="0px" viewBox="0 0 585 477" overflow="visible" xml:space="preserve">
<g>
	<path fill="#154222" d="M124.23,133.06c-6.54-3.74-15.46-4.19-22.66-2.43c-6.96,1.71-12.99,5.47-17.9,10.66
		c-0.64,0.68,0.36,1.68,1.02,1.02c4.66-4.62,10.75-7.84,17.18-9.12c3.48-0.69,7.05-0.88,10.57-0.5c3.76,0.41,7.18,1.66,10.75,2.8
		C124.65,135.96,125.53,133.8,124.23,133.06z"/>
	<path fill="#154222" d="M118.11,232.11c-1.43-7.86-0.76-16.06,1.78-23.62c0.67-1.98-2.37-2.75-3.09-0.85
		c-5.82,15.36-3.4,35.66,8.44,47.72c1.1,1.12,3.13-0.35,2.23-1.72C123,246.92,119.57,240.12,118.11,232.11z"/>
	<path fill="#154222" d="M298.38,52.43c6.72-3.92,14.13-6.18,21.9-6.6c3.57-0.2,7.24-0.4,10.8-0.03c3.76,0.39,7.36,1.54,11.05,2.25
		c1.16,0.22,2.06-1.43,0.86-2.03c-3.49-1.76-7.3-2.48-11.14-3.07c-3.99-0.62-7.92-1.13-11.96-0.81c-8.2,0.64-16.25,2.96-23.34,7.18
		C294.56,50.5,296.36,53.61,298.38,52.43z"/>
	<path fill="#154222" d="M348.07,50.99c1.62,0.35,3.14,1,4.51,1.93c0.77,0.52,1.73-0.7,1-1.29c-1.49-1.21-3.12-2.06-4.99-2.52
		C347.36,48.81,346.84,50.73,348.07,50.99z"/>
	<path fill="#154222" d="M451.78,386.49c1.51-0.96,2.88-2.06,3.83-3.39c2.01-2.84,1.5-7.22-2.19-8.34
		c-3.88-1.18-8.94,0.85-12.47,2.33c-1.42,0.6-2.88,1.27-4.32,2.01c-0.77-0.41-1.55-0.81-2.31-1.24c-1.05-0.58-2.11-1.16-3.18-1.76
		c1.92-1.15,3.63-2.56,4.97-4.33c1.52-2.02,3.3-4.95,0.73-6.89c-2.57-1.94-6.95-0.99-9.84-0.49c-2.82,0.49-5.58,1.33-8.22,2.45
		c-2.49-3.21-4.02-7.17-4.78-11.13c-0.78-4.04-0.14-7.97,0.38-12c0-0.01,0-0.02,0-0.03c4.91-1.65,9.8-3.38,14.66-5.2
		c1.26,2.03,2.65,3.97,4.22,5.77c1.48,1.71,3.25,3.8,5.38,4.75c0.28,0.37,0.74,0.58,1.33,0.37c37.79-13.21,73.81-32.76,104.93-58
		c4.36-3.54,8.62-7.19,12.77-10.98c3.92-3.58,8.62-7.28,11.47-11.8c0.01-0.02,0.02-0.05,0.03-0.07c0.62-0.87,0.21-2.3-1.21-2.47
		c-3.54-0.42-7.14-0.36-10.69-0.76c-3.55-0.4-7.07-0.99-10.55-1.76c-7-1.54-13.87-3.68-20.44-6.56c-4.55-1.99-8.83-4.35-12.93-6.96
		c0-0.05,0-0.1,0-0.14c0.1-0.23,0.18-0.49,0.21-0.78c0.37-4.04,0.06-8.22,0.04-12.27c-0.02-4.09-0.03-8.18-0.05-12.27
		c-0.02-6.01,0.02-12.63-4.04-17.52c-2.09-2.52-4.98-3.81-7.86-5.2c-3.18-1.53-5.61-3.41-7.07-6.7c-1.24-2.79-1.73-5.9-2.18-8.89
		c-0.19-1.28-0.38-2.57-0.57-3.85c-0.26-2.14-0.52-4.27-0.78-6.41c7.42-3.57,13.78-9.65,17.59-16.72
		c2.64-4.89,4.08-13.73-1.19-17.54c-0.05-0.04-0.1-0.05-0.15-0.07c0.82-1.15,1.53-2.37,2.1-3.65c3.15-7.21,0.62-16.32-7.45-18.3
		c0.44-0.53,0.85-1.06,1.24-1.62c2.87-4.14,3.92-9.94,0.92-14.28c-0.06-0.2-0.16-0.4-0.32-0.59c-4.62-5.22-13.24-4.85-19.92-3.17
		c0.02-0.2,0.02-0.41-0.02-0.64c-0.98-5.35-1.97-10.7-2.95-16.05c-0.82-4.48-1.24-9.44-3.42-13.53c-4.39-8.2-14.48-7-21.77-3.83
		c-1.15-3.14-2.77-6.04-5.2-8.35c-6.46-6.12-15.68-4.12-23.19-1.33c-1.98,0.74-3.98,1.44-5.97,2.15c0-2.6-0.64-5.39-1.2-7.83
		c-0.68-2.96-1.66-5.91-3.21-8.54c-2.96-5.01-7.74-9.26-13.54-10.47c-13.95-2.9-24.64,7.27-34.12,15.76
		c-5.05,4.52-10.21,9.42-16.26,12.56c-1.33,0.69-0.16,2.58,1.16,1.98c2.84-1.3,5.7-2.58,8.2-4.47c2.87-2.16,5.6-4.51,8.23-6.95
		c5.76-5.35,11.6-11.24,19.05-14.17c7.28-2.87,14.88-2.13,20.55,3.62c2.53,2.57,4.23,5.71,5.24,9.15c1.05,3.57,1.09,7.24,1.87,10.83
		c-3.39,1.19-6.79,2.36-10.2,3.51c-7.75,2.62-15.47,5.3-23.21,7.95c-0.22,0.07-0.39,0.18-0.53,0.32
		c-18.18-3.09-36.49-5.39-54.69-8.34c-9.77-1.58-19.54-3.16-29.32-4.68c-8.31-1.29-17.23-2.77-25.48-0.32
		c-3.58,1.06-7.05,2.92-9.39,5.9c-1.97,2.5-2.79,5.47-2.88,8.53c-4.44,4.56-7.9,10.29-10.97,15.81c-2.65,4.76-4.9,9.72-6.66,14.86
		c-5.08-10.81-10.34-21.54-15.61-32.25c-1.26-2.55-2.51-5.09-3.78-7.64c-0.5-1-1-2.01-1.5-3.01c-0.58-1.16-1.1-2.97-2.05-3.87
		c-0.83-0.79-2.34-0.78-3.39-0.98c-1.65-0.3-3.3-0.62-4.95-0.95c-3.3-0.67-6.58-1.39-9.84-2.23c-12.76-3.28-25.03-8.34-35.32-16.72
		c-11.83-9.64-21.52-21.33-31.08-33.14c-0.57-0.7-1.43-0.49-1.95,0.06c-0.31,0.27-0.49,0.65-0.42,1.09
		c0.01,0.06,0.03,0.13,0.05,0.19c0.01,0.03,0.02,0.07,0.03,0.1c0.03,0.09,0.04,0.17,0.09,0.26c0.3,0.51,0.63,1.01,0.94,1.52
		c9.02,15.2,14.42,32.29,17.09,49.72c1.53,9.99,2.22,20.13,2.52,30.23c0.15,5.06,0.22,10.12,0.27,15.18
		c0.05,5-0.38,10.21,0.17,15.18c0,0.04,0.02,0.06,0.03,0.1c0,0.17,0.04,0.34,0.12,0.52c0.35,0.8,0.73,1.59,1.09,2.39
		c-21.81,14.3-33.28,42.66-27.24,68.1c1.77,7.44,5.18,15.04,9.81,21.12c0.04,0.06,0.09,0.1,0.14,0.15
		c-2.4,7.54-3.1,15.51-1.22,23.65c2.76,11.89,10.09,22.42,19.65,29.87c9.83,7.65,21.76,11.83,34.08,12.97
		c1.18,0.11,1.39-1.75,0.28-2.04c-19.73-5.1-39.69-15.38-47.95-35.15c-3.94-9.44-4.52-20.08-1.4-29.84
		c3.19-9.97,9.81-18.78,17.13-26.09c13.91-13.88,31.18-23.76,49.69-30.09c18.74-6.41,38.73-10.06,58.57-10.01
		c5.92,0.02,11.37,1.38,16.35,4.64c4.36,2.85,7.92,6.82,10.9,11.07c3.15,4.48,5.97,9.41,7.96,14.51c1.62,4.17,2.78,8.85,1.68,13.15
		c-0.06-0.04-0.12-0.07-0.18-0.11c-0.45-1.05-0.93-2.08-1.42-3.07c-2.49-5.05-6.05-10.54-10.55-14.02
		c-1.79-1.39-4.05,0.74-2.52,2.52c2.81,3.28,5.68,6.26,7.91,10c2.17,3.64,3.9,7.58,4.89,11.71c1,4.14,0.86,8.87-2.59,11.87
		c-2.56,2.23-7.21,2.06-8.95-0.88c-1.04-3.79-2.76-7.41-4.67-10.83c-2.22-3.99-4.73-7.9-8.1-11c-1.25-1.15-3.14,0.29-2.34,1.81
		c3.97,7.52,9.45,14.42,11.05,22.99c1.22,6.57-0.78,15.46-8.14,17.46c-6.48,1.76-12.84-2.68-15.92-8.07
		c-3.14-5.5-5.51-11.63-7.18-17.73c-0.14-0.5-0.41-0.85-0.75-1.08c-0.71-0.6-1.76-0.74-2.62,0.16
		c-7.08,7.28-14.79,13.81-24.25,17.79c-10.25,4.31-21.57,5.19-32.37,2.54c-1.86-0.46-2.54,2.2-0.78,2.83
		c3.42,1.23,6.92,1.97,10.43,2.3c1.32,3.26,2.66,6.51,3.99,9.76c-0.19,0.2-0.35,0.43-0.47,0.72c-3.7,9.02-6.91,18.22-10.09,27.43
		c-2.89,8.36-6.56,16.72-8.12,25.47c-1.28,7.15-1.06,14.89,3.65,20.8c1.36,1.71,2.97,3.08,4.72,4.21
		c-18.56,25.32-36.97,51.4-48.59,80.77c-5.63,14.24-8.57,30.73-2.45,45.3c5.85,13.93,19.84,21.85,33.08,27.65
		c28.43,12.44,61.14,13.98,90.18,2.6c13.32-5.22,27.35-13.01,36.03-24.71c1.58-2.12,2.92-4.45,3.97-6.89
		c14.38,8.87,31.52,11.51,48.15,12.91c19.96,1.68,40.35,3.05,60.34,1.07c18.36-1.82,38.81-6.28,48.8-23.48
		c4.5-7.74,5.98-16.91,1.2-24.88C466.07,394.06,458.97,389.96,451.78,386.49z M446.44,379.16c1.56-0.44,3.45-1.03,5.08-0.88
		c3.72,0.35-0.26,3.84-1.46,4.6c-0.85,0.55-1.73,1.06-2.62,1.55c-2.2-1.03-4.4-2.08-6.58-3.16
		C442.67,380.44,444.52,379.71,446.44,379.16z M441.23,387.38c-3.13,1.24-6.37,2.2-9.65,2.91c-1.08,0.23-2.16,0.43-3.25,0.6
		c1.63-2.71,4.22-4.89,6.97-6.62C437.26,385.34,439.23,386.37,441.23,387.38z M430.17,381.37c0.46,0.27,0.94,0.52,1.4,0.79
		c-3.4,2.44-6.25,5.48-7.71,9.28c-4.17,0.35-8.38,0.26-12.52-0.32c-3.05-0.43-6.89-1.04-7.22-4.8c-0.13-1.47,0.27-2.96,0.91-4.35
		c3-0.14,6-0.41,8.99-0.86c3.59-0.54,7.7-1.23,11.55-2.52C427.08,379.54,428.62,380.46,430.17,381.37z M423.5,377.25
		c-3.89,1.17-7.98,1.85-11.76,2.38c-1.9,0.27-3.82,0.45-5.73,0.59c0.52-0.82,1.1-1.58,1.67-2.26c2.35-2.76,5.18-5.14,8.29-7.06
		C418.15,373.34,420.74,375.38,423.5,377.25z M423.46,367.34c3.01-1.02,6.29-1.79,9.47-1.82c2.29-0.02,4.82,0.64,3.22,3.78
		c-0.76,1.48-2.24,2.7-3.55,3.67c-1.06,0.78-2.22,1.44-3.41,2.04c-3.04-1.75-6.01-3.66-8.5-6.01c-0.13-0.13-0.25-0.27-0.38-0.4
		C421.34,368.13,422.39,367.7,423.46,367.34z M392.6,347.62c-6.64-4.29-12.51-9.57-17.34-15.8c2.07-3.44,3.39-7.47,4.57-11.23
		c4-12.72,8.09-25.42,12.19-38.11c11.67-2.23,23.31-4.58,34.95-6.91c10.72-2.15,21.94-4.24,31.28-10.26
		c6.91-4.44,12.45-10.43,15.56-17.94c7.04,19.69,20.38,36.57,37.21,48.94c-26.01,15.12-53.22,28.37-81.37,39.04
		c-0.3,0.02-0.6,0.14-0.85,0.32c-2.92,1.1-5.84,2.18-8.77,3.22C411,342.1,401.85,345.02,392.6,347.62z M476.58,216.84
		c0.09,0.19,0.18,0.39,0.27,0.58c-0.09-0.14-0.18-0.28-0.26-0.43C476.59,216.95,476.59,216.9,476.58,216.84z M543.07,265.83
		c3.98,1.06,8.04,1.85,12.11,2.42c3.43,0.48,7.04,1.02,10.56,1c-2.84,2.37-5.38,5.24-8.05,7.73c-3.6,3.35-7.29,6.61-11.06,9.77
		c-7.76,6.5-15.86,12.6-24.21,18.31c-16.43,11.23-33.83,20.98-51.97,29.16c-10.01,4.52-20.18,8.66-30.54,12.33
		c-1.3-1.47-2.99-2.67-4.31-4.13c-1.4-1.56-2.64-3.25-3.78-5.01c19.35-7.38,38.23-16.01,56.57-25.6c8.67-4.53,17.22-9.3,25.66-14.24
		c0.9-0.53,0.78-1.7,0-2.25c-18.25-12.88-31.67-30.77-38.9-51.84c2.14-7.5,2.03-15.52,1.6-23.38c2.43,3.54,5.48,6.66,8.63,9.64
		c5.84,5.54,11.73,11.08,18.06,16.08C515.18,255.05,528.65,261.98,543.07,265.83z M507.25,151.69c-0.38,3.22-1.92,6.08-3.72,8.72
		c-3.78,5.54-9.21,9.9-15.3,12.66c-5.68,2.56-13.65,3.97-19.55,1.22c-6.6-3.08-5.44-10.83-2.36-16.06c0.3,0.06,0.6,0.13,0.88,0.18
		c7.98,1.43,16.67-0.97,23.83-4.45c5.03-2.44,10.55-5.74,14.49-10.14C506.52,146.49,507.62,148.64,507.25,151.69z M507.61,131.46
		c0,4.17-2.24,7.92-5.08,10.81c-5.75,5.83-13.88,10.06-21.76,12.08c-4.02,1.03-8.22,1.73-12.37,1.08c-3.09-0.48-7.35-1.63-9-4.53
		c-1.86-3.26-2.04-6.16,0.17-9.39c1.79-2.63,3.93-3.37,6.73-4.47c8.34-0.08,16.6-3.4,23.6-7.75c3.2-1.99,6.56-4.23,9.42-6.9
		c0.26,0.22,0.61,0.39,1.06,0.45C504.77,123.43,507.62,127.19,507.61,131.46z M501.75,105.21c0.06,0.07,0.13,0.13,0.2,0.19
		c5.41,8.25-5.67,16.55-11.64,20.52c-7.05,4.69-15.22,8.36-23.8,8.53c-0.21-0.08-0.46-0.09-0.74,0c-0.28,0-0.56,0.01-0.84,0
		c-4.72-0.15-10.3-1.33-12.84-5.76c-2.61-4.54,0.49-8.85,3.77-11.98c1.81-1.73,3.79-3.21,5.89-4.53c0.46-0.14,0.89-0.39,1.22-0.75
		c5.14-3.02,10.88-5.1,16.45-7.08C485.7,102.11,496.54,99.28,501.75,105.21z M480.08,101c0.02,0.05,0.05,0.09,0.08,0.14
		c-0.48,0.17-0.96,0.33-1.45,0.5L480.08,101z M423.54,61.06c6.61-2.1,15.7-6.07,22.21-2.03c6.23,3.87,7.03,12.92,8.13,19.45
		c1.8,10.68,3.27,21.41,5.11,32.09c0.01,0.07,0.04,0.13,0.05,0.2c-2.11,1.46-4.09,3.09-5.89,4.96c-3.16,3.29-5.71,7.71-4.12,12.37
		c1.59,4.65,6.09,7.34,10.68,8.32c0.32,0.07,0.65,0.11,0.97,0.17c-0.55,0.34-1.08,0.75-1.59,1.25c-2.27,2.23-4.01,5.26-4.21,8.5
		c-0.15,2.49,1.31,5.9,2.99,7.73c1.39,1.51,3.41,2.6,5.51,3.35c-2.8,4.51-4.06,10.03-1.62,15.03c1.75,3.56,5,5.35,8.59,6.21
		c0.18,9.54,0.51,19.1,1.06,28.62c0.57,9.81,1.7,19.96,0.94,29.76c-0.76,9.9-5.82,18.72-13.94,24.46
		c-8.67,6.14-19.64,7.49-29.81,9.42c-11.68,2.22-23.36,4.42-35.02,6.73c7.91-24.4,15.88-48.78,23.5-73.28
		c6.44-20.7,12.6-41.48,18.27-62.4c0.14-0.2,0.25-0.43,0.32-0.72c0.21-0.9,0.42-1.8,0.62-2.71c0.09-0.38,0.07-0.73-0.02-1.04
		c0.91-7.77-0.27-15.55-1.88-23.21c-1.5-7.13-2.79-14.57-6.01-21.17c-6.88-14.09-25.32-17.96-39.68-20.5
		C400.33,68.79,411.88,64.77,423.54,61.06z M254.2,90.2c2.38-4.14,5.16-7.95,7.9-11.82c1.52,8.42,5.33,16.57,8.91,24.27
		c-5.15,9.22-10.03,18.58-14.88,27.95c-3.24-7.62-6.62-15.18-10.1-22.69C248.12,101.76,250.96,95.84,254.2,90.2z M175.38,106.49
		c3.4,7.53,6.82,15.04,10.32,22.52c3.6,7.71,7.04,15.53,11.24,22.94c0.02,0.04,0.06,0.06,0.09,0.1c-5.53,2.46-10.91,5.26-16.06,8.43
		c-2.65-7.8-7.34-15.14-11.2-22.39c-3.8-7.13-7.54-14.28-11.56-21.28C165.78,116.59,171.3,112.28,175.38,106.49z M164.67,136.07
		c-1.99,0.88-3.87,1.96-5.63,3.19c-2.66-3.68-5.54-6.99-7.32-11.3c2-1.87,4.12-3.62,6.35-5.24
		C160.2,127.2,162.43,131.64,164.67,136.07z M148.98,130.7c1.59,3.99,3.96,8.04,7.4,10.62c-3.13,2.65-5.82,5.81-8.06,9.29
		c-2.76-2.69-5.31-5.4-7.47-8.68c-0.07-0.1-0.15-0.17-0.23-0.24C142.98,137.74,145.79,134.06,148.98,130.7z M133.13,183.33
		c-0.57-3.14-0.87-6.34-0.93-9.54c2.25,2.27,4.75,4.06,7.55,5.57c-0.08,3.05,0.09,6.13,0.45,9.16c0.06,0.53,0.13,1.07,0.2,1.62
		c-2.05-0.1-4.03-0.38-5.97-1.06C133.93,187.2,133.48,185.3,133.13,183.33z M144.12,158.72c-0.67,1.67-1.28,3.41-1.81,5.2
		c-1.2-0.85-2.37-1.72-3.43-2.8c-1.54-1.57-2.87-3.33-4.18-5.09c-0.06-0.08-0.14-0.13-0.21-0.19c1.2-4.26,2.88-8.33,4.98-12.16
		c2.14,3.25,4.66,6.38,7.63,8.91C145.97,154.57,144.97,156.62,144.12,158.72z M133.65,159.16c0.04-0.2,0.1-0.39,0.15-0.59
		c1.99,3.15,4.37,6.68,7.71,8.28c-0.87,3.51-1.45,7.12-1.67,10.61c-2.44-1.56-4.7-3.43-6.72-5.5c-0.29-0.29-0.62-0.33-0.92-0.24
		C132.26,167.5,132.75,163.27,133.65,159.16z M140.72,204.34c-2.18-3.95-3.97-7.94-5.34-12.13c1.7,0.52,3.46,0.78,5.28,0.6
		c0.05,0,0.09-0.03,0.13-0.04c0.35,2.05,0.85,4.08,1.68,5.92c0.13,0.28,0.32,0.49,0.55,0.64
		C142.18,200.98,141.41,202.65,140.72,204.34z M145.6,194.77c-0.41-1.98-0.93-3.96-1.25-5.95c-0.53-3.21-0.8-6.47-0.82-9.72
		c-0.05-6.36,0.45-12.25,2.62-18.28c3.44-9.55,10.31-18.25,19.66-22.5c0.2,0.4,0.4,0.8,0.6,1.19c1.86,3.67,3.73,7.34,5.59,11.01
		c1.93,3.82,3.72,7.76,6.2,11.26c0.08,0.11,0.18,0.21,0.28,0.29c-6.01,3.9-11.67,8.29-16.83,13.2
		C155.72,180.93,150.03,187.53,145.6,194.77z M199.28,151.08c-0.01-0.03,0-0.06-0.02-0.1c-3.09-7.91-6.91-15.51-10.52-23.19
		c-3.69-7.86-7.41-15.7-11.1-23.55c-0.12-0.25-0.27-0.43-0.45-0.55c1.54-2.61,2.85-5.41,3.97-8.2c0.06,1.6,0.29,3.17,0.84,4.6
		c1.06,2.77,3.75,3.8,6.24,2c3.01-2.17,5.17-6.42,6.88-9.62c0.16-0.29,0.29-0.6,0.44-0.89c0.13,0.53,0.32,1.03,0.58,1.48
		c1.77,3.05,4.72,1.56,7.07-0.41c3.94,8.06,7.84,16.14,11.65,24.26c1.92,4.1,3.79,8.22,5.65,12.34c1.86,4.16,3.44,8.89,5.99,12.66
		c0.14,0.2,0.3,0.36,0.47,0.48c-3.34,0.73-6.67,1.54-9.96,2.47C211.02,146.54,205.08,148.62,199.28,151.08z M229.5,141.84
		c0.2-0.34,0.27-0.78,0.15-1.27c-1.05-4.28-3.46-8.49-5.34-12.47c-2-4.22-4.03-8.43-6.08-12.63c-4.1-8.4-8.34-16.72-12.78-24.95
		c0,0-0.01-0.01-0.01-0.01c0.2-0.22,0.39-0.42,0.56-0.6c6.47-7.17,10.24-17.2,11.81-26.62c0.27-1.6-1.96-2.28-2.47-0.68
		c-2.2,6.94-3.86,13.98-7.66,20.28c-1.7,2.82-4.1,6.48-7,8.24c-2,1.22-2.41,0.39-2.55-1.53c-0.08-1.02-0.06-2.04,0.02-3.06
		c0.04-0.55,0.12-1.09,0.2-1.62c0.58-1.7,1.1-3.43,1.52-5.19c0.34-1.44-1.88-2.56-2.52-1.06c-0.05,0.11-0.08,0.22-0.13,0.33
		c0,0-0.01,0-0.01,0c-0.01,0.02-0.01,0.05-0.02,0.07c-0.78,1.89-1.34,3.83-1.63,5.85c-1.25,3.72-2.88,7.31-4.92,10.69
		c-0.71,1.18-1.45,2.37-2.28,3.46c-0.94,1.23-1.32,1.82-2.95,1.43c-1.4-0.33-1.54-0.57-1.87-1.85c-0.81-3.16-0.49-7.08,0.13-10.24
		c0.24-1.23-1.44-1.69-1.87-0.52c-4.1,11.18-9.98,26.6-24.01,26.92c0.34-3.31,0.29-6.7,0.39-10.02c0.13-4.11,0.26-8.23,0.28-12.34
		c0.03-8.21-0.21-16.44-0.9-24.62c-0.65-7.72-1.75-15.43-3.41-23.01c2.83-2.64,5.82-5.02,8.92-7.33c2.34,1.96,4.75,3.83,7.25,5.56
		c14.12,9.74,31.12,14.09,47.82,16.96c12.46,24.56,24.77,49.27,35.98,74.43c-0.72,1.39-1.44,2.78-2.16,4.16
		c-1.07,0.11-2.14,0.22-3.18,0.32C242.31,139.59,235.87,140.55,229.5,141.84z M293.86,150.42c0.85,0.15,1.71,0.31,2.56,0.48
		c-0.24,0.58-0.45,1.16-0.64,1.75C295.15,151.89,294.52,151.14,293.86,150.42z M298.19,208.19c4.73-0.31,8.05-4.65,8.87-9.02
		c0.55-2.94,0.26-5.92-0.49-8.81c0.49-0.79,0.9-1.59,1.23-2.41c1.99,0.28,4.09,0.01,6.12-0.6c4.43-1.34,7.21-5.94,9.08-9.89
		c2.54-5.34,4.63-10.92,6.91-16.38c2.36-5.67,4.83-11.32,7.09-17.03c1.48-3.74,2.96-8.43,1-12.28c-2.21-4.34-8.08-5.4-12.28-6.76
		c-5.86-1.89-11.78-3.62-17.76-5.07c-5.64-1.37-11.35-2.65-17.16-2.78c-11-0.24-15.27,9.94-17.75,19.03
		c-0.2,0.73,0.91,1.03,1.13,0.31c2.11-6.77,5.34-16.05,13.4-17.36c2.58-0.42,5.04,0.08,7.46,0.92c2.42,0.84,5.09,1.21,7.59,1.83
		c4.78,1.18,9.56,2.4,14.29,3.76c4.76,1.37,9.59,2.76,14.23,4.54c4.69,1.79,5.32,5.63,4.06,10.11c-1.26,4.49-3.48,8.8-5.28,13.09
		c-1.93,4.6-3.86,9.2-5.8,13.8c-1.98,4.71-3.65,10.02-6.93,14.02c-2.13,2.6-5.47,4.91-8.79,4.94c2.25-8.32-2.48-17.7-6.64-24.77
		c-1-1.71-2.09-3.4-3.25-5.06c0.73-1.39,1.21-2.99,1.67-4.56c0.6,0.15,1.21,0.29,1.81,0.45c3.84,1,7.65,2.63,11.66,2.65
		c1.6,0.01,1.93-2,0.76-2.82c-3.47-2.45-8.03-3.32-12.09-4.33c-0.25-0.06-0.5-0.11-0.74-0.17c0.86-2.4,1.73-4.79,2.75-7.14
		c0.57-1.32-1.21-2.47-1.99-1.16c-1.45,2.46-2.89,4.96-4.11,7.56c-2.87-0.59-5.77-1.07-8.69-1.41c-0.35-0.04-0.65-0.01-0.91,0.08
		c-2.28-1.84-4.74-3.42-7.41-4.63c-7.45-3.39-16.07-3.34-24.36-2.66c5.83-11.57,11.42-23.26,17.54-34.68
		c0.1-0.19,0.16-0.38,0.19-0.56c0.09-0.37,0.07-0.77-0.1-1.19c-3.1-7.3-6.13-14.81-7.93-22.56c-0.87-3.73-1.46-8.04,0.72-11.44
		c1.73-2.69,4.76-4.22,7.75-5.07c7.86-2.24,16.61-0.62,24.52,0.55c8.87,1.3,17.74,2.55,26.61,3.8c17.63,2.48,35.24,5.2,52.83,7.96
		c8.28,1.3,16.61,2.75,24.65,5.21c6.69,2.05,14.34,5.08,18.8,10.75c4.47,5.68,5.75,13.39,7.26,20.26
		c1.98,9.04,3.98,18.31,2.41,27.54c-10.26,37.65-22.18,74.81-34.3,111.89c-3.11,9.52-6.24,19.04-9.35,28.57
		c-0.21,0.3-0.32,0.66-0.33,1.03c-2.9,8.88-5.79,17.76-8.64,26.66c-1.5,4.7-2.98,9.41-4.48,14.11c-1.13,3.54-2.37,7.21-4.67,10.18
		c-5.55,7.18-15.7,4.67-23.43,3.71c-18.42-2.27-36.78-5.02-55.18-7.49c1.47-0.88,2.91-1.81,4.33-2.76c0.33-0.22,0.65-0.44,0.98-0.66
		c2.83-1.93,5.57-3.98,8.22-6.13c0.33-0.26,0.65-0.53,0.97-0.8c1.31-1.08,2.6-2.18,3.85-3.3c4.06-3.64,8.2-7.93,10.96-12.85
		c6.79,1.16,13.67,2.04,20.55,2.4c5.61,0.3,11.11,0.52,15.67-3.29c3.87-3.23,5.58-8.87,7.33-13.42c2.54-6.62,4.88-13.32,7.16-20.04
		c2.1-6.19,4.25-12.36,6.3-18.56c1.52-4.59,2.48-10.23-2-13.51c-2.25-1.65-5.1-2.12-7.77-2.69c-3.35-0.72-6.71-1.41-10.07-2.05
		c-6.9-1.32-13.83-2.44-20.79-3.35c-6.19-0.81-13.73-2.41-18.52,2.69c-2.17,2.32-3.61,5.28-5.1,8.05c-1.79,3.32-3.57,6.66-5.35,9.99
		c-0.98-0.31-2.07-0.26-3.08,0.23c-0.55,0.27-1.02,0.64-1.42,1.08c-0.54-1.69-1.09-3.39-1.65-5.08c0.01-0.02,0.02-0.03,0.03-0.06
		c1.32-5.51,5.7-12.54,3.24-18.25c-1.99-4.61-6.7-6.49-11.25-7.63c-0.28-0.07-0.52-0.06-0.75,0c-0.44-1.15-0.89-2.31-1.36-3.45
		c0.41-2.47,0.39-5.02-0.01-7.56C293.93,207.64,296.19,208.32,298.19,208.19z M283.62,397.38c-2.6-0.77-5.12-1.68-7.57-2.74
		c1.15-1.41,2.02-3.02,2.35-4.8c0.6-3.27-1.94-4.31-4.71-4.4c-3.49-0.12-6.99,0.43-10.35,1.48c-0.21-0.17-0.43-0.33-0.63-0.51
		c-3.4-2.94-5.83-5.89-6.19-10.53c5.38-2.09,10.97-3.71,16.61-4.81c0.53-0.1,0.31-0.92-0.23-0.82c-5.51,1.07-11.07,2-16.44,3.56
		c0.05-3.4,0.81-6.81,1.87-10.01c2.43-7.35,6.47-14.09,10.97-20.36c2.23-3.1,4.65-6.04,7.19-8.88c0.01-0.01,0.02-0.03,0.03-0.04
		c0.18-0.05,0.37-0.11,0.55-0.16c0.29-0.09,0.57-0.18,0.85-0.28c0.26-0.08,0.51-0.17,0.77-0.26c0.28-0.1,0.56-0.2,0.84-0.31
		c0.25-0.09,0.51-0.19,0.76-0.28c0.28-0.11,0.56-0.23,0.84-0.34c0.24-0.1,0.49-0.2,0.73-0.3c0.5-0.22,1-0.44,1.49-0.67
		c0.16,0.04,0.32,0.09,0.5,0.11c12.45,1.38,24.89,2.82,37.33,4.29c-11.45,20.23-20.78,41.92-28.2,63.91
		C289.88,399.18,286.71,398.3,283.62,397.38z M243.39,402.26c-2.83-0.19-6.29-0.32-8.73-1.94c-3.81-2.53-2.01-7.12,0.23-10.05
		c4.39-5.74,10.63-9.58,17.13-12.51c0.27-0.12,0.55-0.24,0.83-0.36c0.1,0.78,0.24,1.55,0.45,2.3c0.96,3.47,3.33,6.07,6.03,8.34
		c0.11,0.09,0.22,0.18,0.33,0.27c-4.03,1.75-7.79,4.2-10.99,7.06c-2.02,1.81-3.97,4.22-4.65,6.92
		C243.81,402.27,243.6,402.27,243.39,402.26z M250.35,397.58c3.12-2.94,7.14-5.7,11.4-7.62c3.13,2.37,6.5,4.41,10.02,6.13
		c-1.66,1.19-3.54,2.11-5.42,2.84c-6.1,2.38-12.8,3.48-19.39,3.44C247.62,400.54,249.02,398.83,250.35,397.58z M274.27,393.83
		c-3.11-1.47-6.08-3.2-8.88-5.28c1.75-0.56,3.52-0.96,5.25-1.15c1.29-0.14,3.4-0.52,4.67-0.02c2.64,1.05,0.54,4.49-0.58,5.92
		C274.58,393.49,274.42,393.66,274.27,393.83z M316.29,258.26c-1.7-1.2-3.32-1.28-4.79-0.72c0.09-0.47,0.19-0.92,0.26-1.41
		c0.32-2.44,0.52-5.21-0.98-7.33c-0.08-0.11-0.17-0.2-0.26-0.3c2.8-4.95,5.42-10.07,8.47-14.87c1.33-2.09,3-4.16,5.49-4.86
		c3.09-0.87,6.6,0.33,9.69,0.79c11.91,1.79,23.93,3.7,35.65,6.49c2.27,0.54,4.88,1.29,5.58,3.81c0.64,2.3-0.3,4.92-1.01,7.1
		c-1.79,5.47-3.68,10.91-5.51,16.36c-1.92,5.72-3.85,11.44-5.88,17.12c-1.7,4.73-3.11,9.93-5.57,14.34
		c-1.41,2.53-3.42,4.64-6.28,5.42c-3.05,0.83-6.44,0.41-9.55,0.22c-6.49-0.4-12.95-0.97-19.4-1.8c0.95-2.1,1.63-4.3,1.94-6.6
		c1.02-7.66-2.03-16.96-8.35-21.81C317.45,266.49,319.95,260.85,316.29,258.26z M299.07,233.34c-1.35-4.28-2.76-8.53-4.29-12.74
		c3.71,1.09,7.12,2.75,8.33,6.78c1.23,4.09-0.61,8.44-1.92,12.54C300.48,237.73,299.76,235.54,299.07,233.34z M196,286.32
		c1.53-7.89,4.72-15.47,7.23-23.07c2.84-8.58,5.69-17.16,8.89-25.62c2.39,5.78,4.8,11.55,7.23,17.31
		c-2.78,7.71-7.57,15.58-5.64,24.07c0.99,4.35,4.44,7,8.52,8.36c2.32,0.77,4.77,1.05,7.2,1.2c1.4,0.08,3.05,0.35,4.53,0.14
		c0.22,0.49,0.43,0.99,0.65,1.48c0.1,0.22,0.22,0.39,0.35,0.53c-1.5,4.24-3.66,10.43,1.01,12.8c2.48,1.26,4.81,0.61,6.93-0.83
		c-0.62,2.74-0.44,5.41,1.48,7.39c4.84,4.99,11.01-1.06,13.16-5.48c0.96-1.98-1.75-3.6-2.96-1.73c-1.02,1.57-1.88,3.41-3.45,4.51
		c-1.82,1.28-4.44,1.17-4.77-1.41c-0.49-3.76,2.37-8.31,4.23-11.34c1.04-1.7-1.45-3.71-2.81-2.17c-1.63,1.85-3.25,3.71-4.9,5.55
		c-1.23,1.38-3.01,3.58-5.14,2.98c-3.63-1.01,0.15-9.14,0.5-11.35c0.05-0.33-0.01-0.6-0.12-0.85c-0.03-0.19-0.07-0.37-0.15-0.57
		c-9.61-21.79-19.33-43.53-28.14-65.66c5.89,0.03,11.77-1.08,17.42-3.05c0.03,0.16,0.08,0.32,0.16,0.49
		c8.13,17,16.55,33.82,25.24,50.54c0.59,1.13,2.17,0.14,1.68-0.98c-7.57-17.27-15.38-34.4-23.51-51.42
		c8.56-3.6,16.4-9.16,22.62-15.74c1.42,4.47,3.21,8.87,5.3,13.04c1.9,3.8,4.3,6.99,7.58,9.32c2.27,6.05,4.48,12.11,6.7,18.18
		c2.42,6.61,4.49,13.4,7.38,19.81c0.59,1.32,2.6,0.36,2.27-0.96c-1.69-6.86-4.42-13.49-6.88-20.11c-1.85-4.98-3.8-9.93-5.78-14.86
		c0.25,0.11,0.48,0.23,0.74,0.33c6.02,2.31,12.88,1.08,17.17-3.9c1.66-1.93,2.83-4.09,3.58-6.37c1.62,5.73,3.4,11.41,5.15,17.11
		c2.03,6.62,3.66,13.28,5.37,19.98c0.41,1.62,3.08,1.75,3.42,0c0.14-0.76,0.59-3.26,1.65-3.3c1.15-0.04,1.08,2.28,1.07,2.93
		c-0.07,3.26-1.01,7.18-2.33,10.17c-0.89,2.02,2.06,3.79,3,1.75c0.6-1.31,1.19-2.81,2.25-3.82c1.05-1,3.01-1.64,3.55,0.08
		c0.39,1.25-0.56,3-0.96,4.19c-0.43,1.29-0.92,2.54-1.46,3.79c-0.19,0.43-0.19,0.85-0.09,1.23c0.01,0.05,0.03,0.09,0.04,0.14
		c0.01,0.02,0.01,0.05,0.02,0.07c0.03,0.08,0.07,0.15,0.12,0.23c0.19,0.32,0.45,0.58,0.76,0.76c4.95,4.4,7.66,10.12,7.56,16.87
		c-0.11,7.41-5.08,13.99-10.05,19.07c-5.92,6.06-12.76,11.3-19.9,15.82c-1.42,0.9-2.89,1.81-4.38,2.69c0,0,0,0,0,0
		c-1.65,0.97-3.35,1.9-5.09,2.74c0,0,0,0,0,0c-1.68,0.81-3.39,1.52-5.14,2.09c-0.1,0.03-0.21,0.06-0.32,0.1
		c-0.45,0.14-0.9,0.27-1.35,0.4c-0.17,0.05-0.34,0.09-0.52,0.13c-0.39,0.1-0.79,0.19-1.18,0.27c-0.2,0.04-0.4,0.08-0.6,0.12
		c-0.38,0.07-0.76,0.13-1.14,0.18c-0.21,0.03-0.41,0.06-0.62,0.08c-0.4,0.04-0.8,0.07-1.21,0.1c-0.18,0.01-0.37,0.03-0.55,0.04
		c-0.59,0.02-1.17,0.03-1.77,0c-4.44-0.18-9.09-1.86-12-5.35c-2.8-3.37-3.81-8.25-1.86-12.27c0.79-1.61-1.62-3.03-2.42-1.41
		c-0.91,1.84-1.34,3.76-1.39,5.66c-8.45-2.45-17-4.42-25.58-6.41c-4.23-0.98-8.47-1.91-12.67-2.99c-3.54-0.91-7.16-2.09-10.06-4.4
		C194.95,301.02,194.68,293.15,196,286.32z M232.5,285.36c-0.49,0.01-0.98,0.02-1.48,0c-2.18-0.08-4.36-0.27-6.49-0.74
		c-4.75-1.05-7.99-3.65-8.37-8.68c-0.49-6.5,2.24-12.1,4.49-17.95C224.53,267.15,228.48,276.27,232.5,285.36z M284.57,455.6
		c-1.71,0.97-3.45,1.89-5.2,2.77c-8.53,0.35-17.15-0.02-25.64-0.64c-5.11-0.37-10.33-0.71-15.23-2.35
		c-4.79-1.61-9.09-4.4-13.86-6.07c-4.72-1.65-9.78-2.4-14.78-2.18c-5.05,0.22-10.1,1.62-15.17,1.01c-2.69-0.32-6.59-1.27-6.4-4.7
		c0.14-2.53,1.7-4.98,2.23-7.46c0.83-3.8,0.49-7.98-2.66-10.65c-3.2-2.72-7.83-2.83-11.81-2.55c-5.98,0.42-12.01,1.69-17.84,3.09
		c-1.43,0.34-0.83,2.56,0.61,2.21c5.7-1.37,11.39-2.11,17.23-2.55c3.83-0.29,9.23-0.41,11.41,3.47c2.73,4.87-1.52,9.62-1.76,14.43
		c-0.2,4.08,3.21,6.22,6.79,7.03c4.9,1.11,9.87,0.08,14.78-0.36c5.04-0.45,10.09-0.04,14.95,1.4c4.88,1.45,9.22,4.14,13.96,5.92
		c4.54,1.71,9.37,2.17,14.16,2.59c7.79,0.67,15.65,1.19,23.48,0.9c-23.97,10.3-51.04,11.7-76.24,4.2
		c-7.34-2.18-14.44-5.07-21.22-8.63c-6.22-3.27-12.4-6.97-17.23-12.15c-10.52-11.3-10.42-28.06-6.65-42.11
		c8.09-30.19,26.19-56.34,43.87-81.62c1.95-2.79,3.92-5.58,5.88-8.37c4.39,2.09,9.41,3.09,14.11,4.04
		c10.98,2.22,21.93,4.6,33.03,6.18c0.92,4.75,4.22,9.04,8.78,11.25c0.53,0.26,1.06,0.49,1.6,0.69c0.18,0.07,0.37,0.12,0.55,0.19
		c0.36,0.13,0.71,0.25,1.07,0.36c0.22,0.06,0.44,0.11,0.66,0.17c0.33,0.08,0.65,0.17,0.98,0.24c0.24,0.05,0.47,0.09,0.71,0.13
		c0.31,0.06,0.63,0.11,0.94,0.15c0.25,0.03,0.49,0.05,0.74,0.08c0.31,0.03,0.62,0.06,0.92,0.08c0.25,0.02,0.5,0.02,0.76,0.03
		c0.3,0.01,0.61,0.02,0.91,0.01c0.26,0,0.51-0.01,0.77-0.02c0.3-0.01,0.6-0.03,0.9-0.05c0.26-0.02,0.52-0.04,0.78-0.07
		c0.3-0.03,0.59-0.06,0.89-0.1c0.26-0.03,0.52-0.07,0.78-0.11c0.08-0.01,0.16-0.02,0.24-0.03c-3.6,4.47-6.89,9.17-9.8,14.12
		c-3.68,6.27-7.9,12.54-9.29,19.81c-0.35,1.81-0.57,3.72-0.56,5.62c-1.63,0.58-3.24,1.22-4.82,1.98c-3.68,1.77-7.16,4.04-10.22,6.75
		c-2.89,2.55-6.34,5.98-7.47,9.77c-1,3.34-0.03,6.94,2.87,8.97c3.04,2.12,7.12,2.42,10.74,2.56c0.01,0.13,0.02,0.25,0.04,0.38
		c0.54,3.48,3.32,5.7,6.51,6.76c3.17,1.06,6.72,1.19,10.15,1.06c-1.99,2.6-3.5,5.58-4.39,8.83c-0.23,0.84,0.96,1.11,1.27,0.35
		c1.39-3.38,3.54-6.59,6.13-9.35c0.15-0.01,0.3-0.02,0.45-0.03c5.18-0.38,10.34-1.44,15.21-3.27c1.69-0.63,3.47-1.46,4.62-2.89
		c0.66-0.82,1.72-2.6,0.8-3.6c-0.96-1.04-3.59-0.59-4.81-0.53c-2.03,0.1-4.05,0.49-5.98,1.13c-4.19,1.37-7.97,3.71-11.01,6.75
		c-2.54,0.11-5.05,0.08-7.45-0.13c-2.76-0.24-6.21-0.96-7.9-3.38c-0.46-0.66-0.72-1.34-0.82-2.03c8.62-0.04,18.09-1.95,25.23-6.73
		c0.62-0.42,1.24-0.89,1.84-1.39c1.29,0.58,2.59,1.13,3.91,1.63c7.14,2.68,14.95,3.93,21.56,7.89c6.19,3.71,10.27,9.67,10.44,17.02
		C309.97,438.68,296.42,448.87,284.57,455.6z M266.33,410.4c1.16-0.98,2.36-1.88,3.62-2.66c2.58-1.61,5.43-2.81,8.44-3.34
		c0.6-0.11,4.07-0.79,4.62-0.15c1.15,1.35-3.3,3.19-4.06,3.46C275.04,409.06,270.69,409.95,266.33,410.4z M426.44,443.99
		c-19.43,3.4-39.21,2.47-58.78,1.16c-18.74-1.25-38.16-3.16-54.86-12.37c1.08-3.34,1.59-6.86,1.35-10.39
		c-0.05-0.76-0.16-1.51-0.28-2.24c8.53-3.03,17.25-5.61,26.39-5.71c4.95-0.05,9.97,0.62,14.63,2.36c4.65,1.74,8.31,4.75,11.95,8.03
		c3.52,3.17,7.16,5.91,11.83,7.11c4.8,1.23,9.98,1.31,14.9,1.11c10.54-0.42,20.85-2.87,31.36-3.53c5.39-0.34,10.86-0.27,16.18,0.75
		c2.54,0.48,5.05,1.17,7.45,2.13c1.82,0.72,3.51,1.69,5.28,2.47c-0.31,0.2-0.61,0.41-0.92,0.6
		C445.02,440.35,435.49,442.41,426.44,443.99z M467.89,414.8c-1.27,7.37-6.11,14.08-12.06,18.66c-2.79-2.82-7.19-4.28-10.91-5.29
		c-4.56-1.24-9.31-1.74-14.02-1.81c-10.53-0.16-20.92,1.98-31.36,3c-5.75,0.56-11.65,0.82-17.39-0.05
		c-5.64-0.85-9.66-3.36-13.94-6.98c-3.47-2.93-6.98-5.5-11.23-7.21c-4.32-1.73-8.87-2.69-13.51-2.95
		c-10.43-0.59-20.42,2.24-30.1,5.8c-1.35-4.85-4.31-8.87-8.59-12.02c-2.46-1.81-5.16-3.18-7.96-4.33
		c7.52-22.48,17.27-43.89,28.26-64.85c5.52,0.66,11.05,1.31,16.57,1.99c4.51,0.56,9.03,1.21,13.56,1.6
		c4.14,0.36,8.44,0.3,12.31-1.39c2.79-1.22,4.91-3.13,6.58-5.41c4.7,6.53,10.51,12.16,17.31,16.52c0.41,0.26,0.81,0.27,1.15,0.12
		c0.2,0.05,0.42,0.05,0.67-0.01c5.77-1.62,11.51-3.36,17.21-5.22c-1.47,6.43-1.47,12.88,1.18,19.12c0.77,1.81,1.73,3.43,2.83,4.92
		c-3.24,1.89-6.2,4.25-8.68,7.04c-1.09,1.23-2.1,2.72-2.88,4.32c-5.97,0.2-11.96-0.23-17.85-1.26c-0.94-0.16-1.34,1.26-0.4,1.44
		c5.8,1.08,11.67,1.59,17.54,1.51c-1.58,4.38-1.18,9.12,4.03,11.3c3.76,1.57,8.38,1.76,12.41,1.86c1.44,0.03,2.87,0,4.31-0.07
		c-0.04,0.32-0.09,0.62-0.11,0.95c-0.23,3.9,1.21,7.92,4.36,10.34c3.75,2.88,8.54,2.99,13.06,2.89c2.18-0.04,2.18-3.32,0-3.39
		c-6.22-0.18-13.76-1.33-13.66-9.17c0.01-0.67,0.09-1.31,0.2-1.93c1.8-0.2,3.6-0.45,5.38-0.81c4.45-0.89,8.78-2.34,12.92-4.2
		c0.19-0.08,0.39-0.17,0.58-0.26c3.34,1.56,6.71,3.07,9.9,4.94C462.86,398.75,469.46,405.72,467.89,414.8z"/>
	<path fill="#154222" d="M566.15,319.57c-4.14,15.15-15.53,28.14-29.92,34.39c-1.12,0.49-0.32,2.4,0.84,1.98
		c15.91-5.82,27.88-19.12,32-35.56C569.55,318.49,566.67,317.69,566.15,319.57z"/>
	<path fill="#154222" d="M580.75,337.65c-5.46,11.81-13.83,21.45-24.27,29.14c-1.42,1.04-0.13,3.42,1.41,2.42
		c11.12-7.23,19.97-18,25.59-29.96C584.35,337.41,581.61,335.81,580.75,337.65z"/>
	<path fill="#154222" d="M13.74,195.29c0.26-2.06-3.1-2.45-3.59-0.49c-3.64,14.6,2.21,31.79,16.04,38.85
		c1.45,0.74,3.09-1.12,1.81-2.34C18.21,222.01,12.01,208.96,13.74,195.29z"/>
	<path fill="#154222" d="M3.66,224.9c-0.26-1.28-2.43-1.01-2.31,0.31c0.69,7.76,4.77,15.23,12.02,18.6
		c1.15,0.53,2.64-0.98,1.48-1.92C9.41,237.49,5.07,231.87,3.66,224.9z"/>
	<path fill="#154222" d="M72.31,222.71c-8.39,0.92-16.54-3.94-22.45-9.5c-6.29-5.92-8.99-13.14-10.39-21.48
		c-0.23-1.35-2.18-0.91-2.26,0.31c-1.18,17.48,17.93,35.21,35.25,31.75C73.04,223.66,72.92,222.65,72.31,222.71z"/>
	<path fill="#154222" d="M37.9,166.35c0.62-1.1-0.86-2.3-1.77-1.37c-4.42,4.54-5.62,11.44-5.8,17.48c-0.02,0.62,0.89,0.6,0.95,0
		c0.28-2.95,1.24-5.78,2.33-8.53C34.7,171.16,36.46,168.92,37.9,166.35z"/>
	<path fill="#154222" d="M75.93,158.4c-2.2-0.93-4.47-1.62-6.79-2.11c-0.38-0.44-1.04-0.53-1.47-0.26
		c-5.02-0.84-10.2-0.68-15.17,0.44c0.02-0.11,0.03-0.21,0.05-0.32c0.21-1.21-1.66-1.7-1.83-0.5c-0.06,0.44-0.13,0.88-0.2,1.32
		c-3.58,1-7.04,2.49-10.21,4.47c-0.86,0.54-0.08,1.89,0.8,1.37c2.86-1.71,5.93-3.02,9.1-3.95c-0.33,1.91-0.65,3.85-0.78,5.76
		c-1.1,0.39-2.18,0.85-3.25,1.4c-8.11,4.16-14.23,13.03-13.42,22.32c0.11,1.31,2.14,1.35,2.08,0c-0.35-7.59,4.13-14.39,10.63-18.06
		c6.94-3.93,14.96-3.87,22.32-1.15c13.88,5.13,27.87,21.28,23.53,36.95c-2.1,7.58-8.6,15.34-16.87,15.96
		c-0.86,0.06-0.88,1.34,0,1.36c4.09,0.06,7.66-0.72,11.12-2.96c3.54-2.3,6.39-5.09,8.24-8.92c3.95-8.16,2.98-17.45-0.94-25.44
		c-1.99-4.06-4.9-7.94-8.4-11.31c0.16-0.1,0.29-0.26,0.3-0.47c0.17-2.89-0.16-5.85-0.31-8.75c1.22,1,2.38,2.06,3.47,3.19
		c3.86,4.02,5.74,8.95,8.68,13.55c0.29,0.46,1.22,0.34,1.14-0.31c-0.68-5.4-4.47-10.07-8.08-13.97
		C85.84,163.86,81.11,160.58,75.93,158.4z M51.29,164.04c0.41-1.88,0.66-3.82,0.94-5.72c4.96-1.17,10.12-1.37,15.15-0.54
		c0.22,2.29,0.31,4.59,0.47,6.88C62.43,162.96,56.74,162.57,51.29,164.04z M83.55,173.87c-3.92-3.58-8.53-6.52-13.42-8.42
		c0.05-2.41-0.22-4.86-0.53-7.25c1.76,0.4,3.51,0.92,5.21,1.59c3.1,1.21,6.01,2.9,8.66,4.92c-0.22,0.09-0.39,0.28-0.38,0.6
		C83.21,168.16,83.18,171.06,83.55,173.87z"/>
	<path fill="#154222" d="M303.1,264.14c1.43-0.73,0.42-3.26-1.11-2.64c-8.75,3.52-17.23,7.74-25.68,11.92
		c-8.61,4.26-17.16,8.69-25.42,13.6c-1.49,0.88-0.18,3.05,1.35,2.3c8.5-4.17,16.9-8.54,25.37-12.78
		C286.05,272.32,294.68,268.44,303.1,264.14z"/>
	<path fill="#154222" d="M299.23,274.03c-14.24,5.63-27.55,14.16-40.1,22.82c-1.3,0.9-0.09,3.04,1.25,2.15
		c6.38-4.26,12.93-8.2,19.51-12.13c6.57-3.93,13.4-7.4,19.97-11.34C300.61,275.06,300.11,273.68,299.23,274.03z"/>
	<path fill="#154222" d="M343.99,197.99c7.88,2.04,16.06,3.12,24.06,4.56c3.89,0.7,7.78,1.52,11.71,1.98
		c3.27,0.39,6.62,0.14,9.3-1.95c2.31-1.8,3.64-4.42,4.7-7.09c1.45-3.66,2.6-7.47,3.86-11.2c1.37-4.05,2.75-8.08,4.17-12.11
		c1.27-3.61,2.72-7.21,3.5-10.96c1.54-7.32-0.55-13.95-7.67-17.15c-7.93-3.57-17.26-4.67-25.81-5.81c-2.15-0.29-2.68,3.49-0.52,3.82
		c6.97,1.04,13.96,2.38,20.79,4.15c2.33,0.61,4.73,1.34,6.67,2.82c2.76,2.1,3.59,5.29,3.36,8.61c-0.44,6.28-3.46,12.62-5.5,18.51
		c-2.2,6.33-4.14,13-6.89,19.11c-1.06,2.35-2.54,4.63-5.17,5.33c-3.42,0.9-7.53-0.38-10.92-0.88c-6.74-0.99-13.47-1.98-20.21-2.98
		c-3.19-0.48-6.38-0.96-9.51-1.72c-2.71-0.66-7.35-1.35-8.5-4.33c-1.06-2.74,0.74-6.46,1.6-9.06c1.19-3.58,2.42-7.15,3.64-10.73
		c2.48-7.29,5.13-14.56,7.96-21.72c1.44-3.63,3.08-7.03,7.08-8.2c3.3-0.96,6.9-0.41,10.27-0.15c0.85,0.07,0.92-1.17,0.19-1.42
		c-5.86-2.03-12.47-2.47-16.31,3.27c-1.93,2.89-2.98,6.36-4.31,9.55c-1.64,3.93-3.09,7.93-4.62,11.9c-1.53,3.98-3.16,7.92-4.67,11.9
		c-1.36,3.59-3.17,7.33-3.85,11.13C331.08,194.49,338.3,196.51,343.99,197.99z"/>
	<path fill="#154222" d="M358.51,173.87c4-0.91,8.01-1.21,12.1-0.94c1.99,0.13,3.93,0.41,5.89,0.78c1.82,0.35,3.5,0.81,5.34,0.31
		c1.25-0.34,1.5-1.81,0.72-2.72c-2.56-2.97-8.3-3.06-11.95-3.12c-4.44-0.07-8.9,0.64-13.14,1.9
		C355.04,170.8,356.05,174.43,358.51,173.87z"/>
	<path fill="#154222" d="M329.89,255.04c3.49,2.07,8.5-4.56,6.42-7.66c-0.39-0.59-1.19-0.73-1.74-0.41
		c-0.38-0.33-0.9-0.49-1.54-0.31c-1.79,0.51-3.36,1.72-4.16,3.42C328.1,251.71,328.17,254.02,329.89,255.04z M332.97,250.57
		c-0.13,0.14-0.26,0.26-0.4,0.38C332.69,250.81,332.82,250.68,332.97,250.57z"/>
	<path fill="#154222" d="M324.91,276.18c5.41-4.42,11.13-8.55,17.02-12.31c2.89-1.84,5.84-3.59,8.85-5.23
		c3.01-1.64,6.14-3.09,8.87-5.16c1.27-0.96,0.59-3.1-1.13-2.68c-6.76,1.64-13.15,6.22-18.84,10.07c-5.94,4.01-11.45,8.5-16.65,13.42
		C321.76,275.5,323.61,277.25,324.91,276.18z"/>
	<path fill="#154222" d="M340.37,277.35c0.17-0.68-0.03-1.46-0.51-1.94c-0.83-0.83-1.97-0.67-2.81,0c-2.16,1.71-5.35,7.03-1.65,8.83
		c3.38,1.65,6.7-3.21,5.54-6.17C340.82,277.78,340.62,277.53,340.37,277.35z"/>
	<path fill="#154222" d="M379.85,118.94c6.38,1.26,12.76,2.5,19.15,3.72c4.1,0.78,9.4,2.77,12.81-0.68c0.34-0.34-0.1-0.93-0.52-0.67
		c-2.16,1.33-4.47,0.68-6.79,0.21c-2.41-0.49-4.82-1-7.23-1.49c-5.13-1.04-10.26-2.06-15.39-3.07c-10.11-1.99-20.23-3.98-30.34-5.97
		c-10.25-2.02-20.5-4.03-30.74-6.05c-4.79-0.94-9.58-1.96-14.39-2.81c-3.37-0.6-6.78-1.08-10.09-1.98
		c-3.52-0.96-6.99-2.43-9.55-5.11c-2.97-3.13-4.95-7.83-5.85-12c-0.4-1.86-0.91-4.26-0.36-6.14c0.83-2.91,3.94-3.07,6.47-3.01
		c4.62,0.1,9.16,1.24,13.65,2.24c9.73,2.18,19.7,3.41,29.54,5.01c10.23,1.66,20.46,3.35,30.69,5.07c11.47,1.93,23.17,3.4,34.5,6.03
		c4.18,0.97,10.92,2.09,12.54,6.67c0.94,2.64,1.21,5.61,1.72,8.36c0.53,2.87,1.07,5.74,1.6,8.61c0.27,1.43,2.44,0.82,2.18-0.6
		c-0.99-5.45-1.52-11.27-3.14-16.57c-1.23-4.03-4.29-5.7-8.09-6.94c-10.36-3.39-21.47-4.57-32.19-6.39
		c-11.64-1.97-23.3-3.91-34.95-5.81c-10.97-1.79-22.13-3.11-32.98-5.52c-4.71-1.05-9.46-2.25-14.3-2.47
		c-3.61-0.17-7.85,0.21-9.31,4.12c-1.33,3.54,0.05,8.47,1.32,11.83c1.47,3.85,3.46,7.79,6.68,10.47c5.86,4.88,13.95,5.38,21.13,6.76
		c11.33,2.18,22.65,4.46,33.97,6.69C354.33,113.91,367.09,116.42,379.85,118.94z"/>
</g>
</svg>
